<svg xmlns="http://www.w3.org/2000/svg" width="600" height="942" viewBox="0 0 600 942">
  <path d="M 486 901 L 484 907 L 478 902 L 478 909 L 488 909 L 487 902" fill="none" stroke="#F05E39" stroke-width="1.0" stroke-linecap="round" stroke-linejoin="round" opacity="0.55"/>
  <path d="M 463 890 L 464 910 L 475 909 L 473 902 L 472 907 L 467 906 L 466 893 L 484 893 L 486 899 L 488 892 L 464 891" fill="none" stroke="#F05E39" stroke-width="1.0" stroke-linecap="round" stroke-linejoin="round" opacity="0.55"/>
  <path d="M 13 872 L 4 941 L 13 875" fill="none" stroke="#F05E39" stroke-width="1.0" stroke-linecap="round" stroke-linejoin="round" opacity="0.55"/>
  <path d="M 460 866 L 464 888 L 472 887 L 471 883 L 470 887 L 465 885 L 465 877 L 462 875 L 464 868 L 486 870 L 487 866" fill="none" stroke="#F05E39" stroke-width="1.0" stroke-linecap="round" stroke-linejoin="round" opacity="0.55"/>
  <path d="M 116 865 L 113 911 L 140 910 L 140 905 L 114 904 L 117 892 L 140 893 L 141 890 L 119 891 L 115 888 L 117 884 L 141 884 L 118 884 L 117 872 L 128 871 L 119 871 L 120 867 L 138 867 L 139 870 L 131 871 L 142 872 L 144 865" fill="none" stroke="#F05E39" stroke-width="1.0" stroke-linecap="round" stroke-linejoin="round" opacity="0.55"/>
  <path d="M 282 859 L 282 924 L 296 921 L 323 922 L 322 918 L 283 918 L 285 896 L 323 897 L 323 893 L 283 892 L 283 869 L 285 866 L 294 866 L 286 865 L 286 862 L 319 862 L 318 865 L 311 866 L 321 867 L 323 878 L 323 859 L 286 859" fill="none" stroke="#F05E39" stroke-width="1.0" stroke-linecap="round" stroke-linejoin="round" opacity="0.55"/>
  <path d="M 419 807 L 422 842 L 419 816" fill="none" stroke="#F05E39" stroke-width="1.0" stroke-linecap="round" stroke-linejoin="round" opacity="0.55"/>
  <path d="M 147 748 L 140 750 L 139 755 L 148 755 L 148 748" fill="none" stroke="#F05E39" stroke-width="1.0" stroke-linecap="round" stroke-linejoin="round" opacity="0.55"/>
  <path d="M 414 745 L 417 774 L 414 746" fill="none" stroke="#F05E39" stroke-width="1.0" stroke-linecap="round" stroke-linejoin="round" opacity="0.55"/>
  <path d="M 471 739 L 461 741 L 468 742 L 470 748 L 467 753 L 463 751 L 463 756 L 472 756 L 472 740" fill="none" stroke="#F05E39" stroke-width="1.0" stroke-linecap="round" stroke-linejoin="round" opacity="0.55"/>
  <path d="M 449 739 L 450 756 L 460 756 L 459 751 L 455 753 L 452 750 L 452 743 L 459 741 L 450 739" fill="none" stroke="#F05E39" stroke-width="1.0" stroke-linecap="round" stroke-linejoin="round" opacity="0.55"/>
  <path d="M 451 730 L 456 729 L 456 735 L 453 736 L 451 731" fill="none" stroke="#F05E39" stroke-width="1.0" stroke-linecap="round" stroke-linejoin="round" opacity="0.55"/>
  <path d="M 468 728 L 466 732 L 461 729 L 462 736 L 470 737 L 469 728" fill="none" stroke="#F05E39" stroke-width="1.0" stroke-linecap="round" stroke-linejoin="round" opacity="0.55"/>
  <path d="M 446 717 L 449 737 L 458 736 L 457 729 L 448 727 L 450 720 L 467 720 L 468 724 L 472 717" fill="none" stroke="#F05E39" stroke-width="1.0" stroke-linecap="round" stroke-linejoin="round" opacity="0.55"/>
  <path d="M 127 716 L 123 756 L 131 754 L 130 749 L 125 752 L 126 743 L 129 745 L 130 742 L 139 741 L 145 742 L 148 746 L 150 741 L 127 740 L 127 723 L 151 722 L 152 717 L 128 716" fill="none" stroke="#F05E39" stroke-width="1.0" stroke-linecap="round" stroke-linejoin="round" opacity="0.55"/>
  <path d="M 280 711 L 280 767 L 310 767 L 311 765 L 281 763 L 286 761 L 281 757 L 284 754 L 293 753 L 283 752 L 284 744 L 319 743 L 283 742 L 281 740 L 284 738 L 317 737 L 284 738 L 282 732 L 287 731 L 282 729 L 282 720 L 291 718 L 282 716 L 318 716 L 319 712 L 283 711" fill="none" stroke="#F05E39" stroke-width="1.0" stroke-linecap="round" stroke-linejoin="round" opacity="0.55"/>
  <path d="M 294 623 L 293 630 L 302 630 L 301 623 L 299 628 L 295 627 L 295 623" fill="none" stroke="#F05E39" stroke-width="1.0" stroke-linecap="round" stroke-linejoin="round" opacity="0.55"/>
  <path d="M 314 609 L 305 610 L 306 619 L 306 613 L 310 612 L 313 621 L 310 628 L 306 626 L 306 622 L 306 631 L 314 631 L 315 610" fill="none" stroke="#F05E39" stroke-width="1.0" stroke-linecap="round" stroke-linejoin="round" opacity="0.55"/>
  <path d="M 280 609 L 280 631 L 290 631 L 290 623 L 285 628 L 282 621 L 283 613 L 289 613 L 290 610 L 281 609" fill="none" stroke="#F05E39" stroke-width="1.0" stroke-linecap="round" stroke-linejoin="round" opacity="0.55"/>
  <path d="M 437 606 L 438 622 L 448 622 L 445 617 L 440 616 L 441 611 L 447 609 L 451 613 L 453 610 L 457 615 L 451 621 L 459 622 L 459 607 L 438 607" fill="none" stroke="#F05E39" stroke-width="1.0" stroke-linecap="round" stroke-linejoin="round" opacity="0.55"/>
  <path d="M 311 592 L 305 593 L 305 596 L 312 597 L 309 605 L 305 600 L 305 606 L 313 607 L 313 592" fill="none" stroke="#F05E39" stroke-width="1.0" stroke-linecap="round" stroke-linejoin="round" opacity="0.55"/>
  <path d="M 435 587 L 437 604 L 437 595 L 445 593 L 439 590 L 457 594 L 459 589 L 436 587" fill="none" stroke="#F05E39" stroke-width="1.0" stroke-linecap="round" stroke-linejoin="round" opacity="0.55"/>
  <path d="M 135 586 L 132 621 L 137 621 L 137 608 L 157 608 L 137 606 L 136 595 L 139 592 L 146 592 L 138 590 L 155 589 L 149 593 L 157 593 L 159 586" fill="none" stroke="#F05E39" stroke-width="1.0" stroke-linecap="round" stroke-linejoin="round" opacity="0.55"/>
  <path d="M 279 582 L 282 607 L 290 606 L 289 599 L 287 606 L 283 602 L 282 597 L 290 595 L 281 591 L 284 584 L 309 584 L 313 589 L 315 582" fill="none" stroke="#F05E39" stroke-width="1.0" stroke-linecap="round" stroke-linejoin="round" opacity="0.55"/>
  <path d="M 218 504 L 215 512 L 223 513 L 222 505 L 219 504" fill="none" stroke="#F05E39" stroke-width="1.0" stroke-linecap="round" stroke-linejoin="round" opacity="0.55"/>
  <path d="M 288 498 L 288 513 L 303 513 L 303 499 L 297 499 L 300 507 L 296 512 L 291 507 L 294 499 L 290 498" fill="none" stroke="#F05E39" stroke-width="1.0" stroke-linecap="round" stroke-linejoin="round" opacity="0.55"/>
  <path d="M 217 497 L 218 502 L 225 499 L 229 503 L 227 512 L 231 513 L 231 498 L 218 498" fill="none" stroke="#F05E39" stroke-width="1.0" stroke-linecap="round" stroke-linejoin="round" opacity="0.55"/>
  <path d="M 369 488 L 369 496 L 372 496 L 372 488" fill="none" stroke="#F05E39" stroke-width="1.0" stroke-linecap="round" stroke-linejoin="round" opacity="0.55"/>
  <path d="M 227 487 L 226 493 L 229 495 L 231 487" fill="none" stroke="#F05E39" stroke-width="1.0" stroke-linecap="round" stroke-linejoin="round" opacity="0.55"/>
  <path d="M 301 486 L 298 487 L 300 496 L 302 487" fill="none" stroke="#F05E39" stroke-width="1.0" stroke-linecap="round" stroke-linejoin="round" opacity="0.55"/>
  <path d="M 219 486 L 218 494 L 223 493 L 220 487" fill="none" stroke="#F05E39" stroke-width="1.0" stroke-linecap="round" stroke-linejoin="round" opacity="0.55"/>
  <path d="M 358 478 L 360 513 L 366 513 L 362 507 L 365 500 L 372 507 L 368 513 L 374 513 L 374 499 L 361 499 L 364 489 L 359 487 L 364 484 L 360 482 L 362 480 L 369 480 L 371 482 L 367 484 L 372 485 L 374 478" fill="none" stroke="#F05E39" stroke-width="1.0" stroke-linecap="round" stroke-linejoin="round" opacity="0.55"/>
  <path d="M 287 478 L 289 496 L 293 495 L 293 487 L 289 486 L 293 483 L 290 481 L 300 480 L 297 483 L 302 484 L 304 478" fill="none" stroke="#F05E39" stroke-width="1.0" stroke-linecap="round" stroke-linejoin="round" opacity="0.55"/>
  <path d="M 217 477 L 217 485 L 223 483 L 220 480 L 230 480 L 227 483 L 229 484 L 233 480 L 232 477 L 219 477" fill="none" stroke="#F05E39" stroke-width="1.0" stroke-linecap="round" stroke-linejoin="round" opacity="0.55"/>
  <path d="M 361 446 L 346 449 L 365 453 L 384 449 L 369 446" fill="none" stroke="#F05E39" stroke-width="1.0" stroke-linecap="round" stroke-linejoin="round" opacity="0.55"/>
  <path d="M 405 433 L 446 941 L 405 434" fill="none" stroke="#F05E39" stroke-width="1.0" stroke-linecap="round" stroke-linejoin="round" opacity="0.55"/>
  <path d="M 508 429 L 583 941 L 509 429" fill="none" stroke="#F05E39" stroke-width="1.0" stroke-linecap="round" stroke-linejoin="round" opacity="0.55"/>
  <path d="M 439 429 L 437 436 L 429 436 L 438 436 L 440 440 L 429 441 L 429 445 L 440 445 L 440 429" fill="none" stroke="#F05E39" stroke-width="1.0" stroke-linecap="round" stroke-linejoin="round" opacity="0.55"/>
  <path d="M 313 428 L 313 447 L 291 446 L 277 449 L 292 452 L 314 449 L 314 431 L 323 428" fill="none" stroke="#F05E39" stroke-width="1.0" stroke-linecap="round" stroke-linejoin="round" opacity="0.55"/>
  <path d="M 335 427 L 357 941 L 336 434 L 338 429 L 345 429 L 336 428" fill="none" stroke="#F05E39" stroke-width="1.0" stroke-linecap="round" stroke-linejoin="round" opacity="0.55"/>
  <path d="M 266 427 L 268 941 L 267 431 L 276 428 L 267 427" fill="none" stroke="#F05E39" stroke-width="1.0" stroke-linecap="round" stroke-linejoin="round" opacity="0.55"/>
  <path d="M 252 427 L 244 428 L 244 447 L 207 446 L 207 449 L 223 452 L 244 449 L 245 431 L 254 427" fill="none" stroke="#F05E39" stroke-width="1.0" stroke-linecap="round" stroke-linejoin="round" opacity="0.55"/>
  <path d="M 184 425 L 163 427 L 162 439 L 152 439 L 151 443 L 163 443 L 166 428 L 184 429 L 185 426" fill="none" stroke="#F05E39" stroke-width="1.0" stroke-linecap="round" stroke-linejoin="round" opacity="0.55"/>
  <path d="M 369 419 L 371 442 L 370 420" fill="none" stroke="#F05E39" stroke-width="1.0" stroke-linecap="round" stroke-linejoin="round" opacity="0.55"/>
  <path d="M 300 419 L 301 443 L 301 419" fill="none" stroke="#F05E39" stroke-width="1.0" stroke-linecap="round" stroke-linejoin="round" opacity="0.55"/>
  <path d="M 349 412 L 351 413 L 343 419 L 340 417 L 342 412" fill="none" stroke="#F05E39" stroke-width="1.0" stroke-linecap="round" stroke-linejoin="round" opacity="0.55"/>
  <path d="M 276 411 L 284 413 L 276 418 L 274 413" fill="none" stroke="#F05E39" stroke-width="1.0" stroke-linecap="round" stroke-linejoin="round" opacity="0.55"/>
  <path d="M 343 400 L 339 405 L 345 407 L 343 401" fill="none" stroke="#F05E39" stroke-width="1.0" stroke-linecap="round" stroke-linejoin="round" opacity="0.55"/>
  <path d="M 227 396 L 226 405 L 230 397 L 234 399 L 231 396" fill="none" stroke="#F05E39" stroke-width="1.0" stroke-linecap="round" stroke-linejoin="round" opacity="0.55"/>
  <path d="M 219 391 L 212 398 L 217 397 L 221 405 L 220 396 L 223 393 L 234 394 L 228 391" fill="none" stroke="#F05E39" stroke-width="1.0" stroke-linecap="round" stroke-linejoin="round" opacity="0.55"/>
  <path d="M 289 387 L 297 390 L 295 394 L 289 392" fill="none" stroke="#F05E39" stroke-width="1.0" stroke-linecap="round" stroke-linejoin="round" opacity="0.55"/>
  <path d="M 434 384 L 432 393 L 410 393 L 413 425 L 438 422 L 439 426 L 444 426 L 442 403 L 438 404 L 437 400 L 436 415 L 439 407 L 440 421 L 436 419 L 418 424 L 414 420 L 426 416 L 414 415 L 412 396 L 432 394 L 433 405 L 433 396 L 436 394 L 434 390" fill="none" stroke="#F05E39" stroke-width="1.0" stroke-linecap="round" stroke-linejoin="round" opacity="0.55"/>
  <path d="M 380 383 L 379 408 L 371 410 L 365 404 L 351 399 L 350 406 L 355 401 L 366 407 L 354 411 L 339 409 L 339 424 L 343 425 L 344 419 L 350 419 L 351 415 L 357 416 L 359 410 L 367 410 L 369 417 L 377 412 L 379 415 L 376 420 L 380 419 L 382 425 L 381 384" fill="none" stroke="#F05E39" stroke-width="1.0" stroke-linecap="round" stroke-linejoin="round" opacity="0.55"/>
  <path d="M 289 380 L 285 382 L 290 384 L 284 390 L 287 389 L 292 397 L 297 394 L 298 383 L 303 388 L 304 382 L 289 381" fill="none" stroke="#F05E39" stroke-width="1.0" stroke-linecap="round" stroke-linejoin="round" opacity="0.55"/>
  <path d="M 313 377 L 313 382 L 307 387 L 313 389 L 310 402 L 313 405 L 313 414 L 310 416 L 300 409 L 288 409 L 287 406 L 286 410 L 277 411 L 274 408 L 275 395 L 272 395 L 272 424 L 275 425 L 275 420 L 281 419 L 283 414 L 289 415 L 290 410 L 299 410 L 300 416 L 307 415 L 308 419 L 313 419 L 315 425 L 314 377" fill="none" stroke="#F05E39" stroke-width="1.0" stroke-linecap="round" stroke-linejoin="round" opacity="0.55"/>
  <path d="M 146 376 L 144 415 L 140 422 L 162 420 L 164 423 L 174 424 L 176 396 L 174 403 L 169 401 L 173 407 L 173 419 L 170 422 L 159 418 L 150 418 L 148 421 L 145 419 L 149 378 L 147 376" fill="none" stroke="#F05E39" stroke-width="1.0" stroke-linecap="round" stroke-linejoin="round" opacity="0.55"/>
  <path d="M 366 374 L 377 375 L 371 398 L 371 378 L 366 375" fill="none" stroke="#F05E39" stroke-width="1.0" stroke-linecap="round" stroke-linejoin="round" opacity="0.55"/>
  <path d="M 148 360 L 147 373 L 151 362 L 149 360" fill="none" stroke="#F05E39" stroke-width="1.0" stroke-linecap="round" stroke-linejoin="round" opacity="0.55"/>
  <path d="M 414 359 L 434 359 L 436 371 L 411 372 L 411 359" fill="none" stroke="#F05E39" stroke-width="1.0" stroke-linecap="round" stroke-linejoin="round" opacity="0.55"/>
  <path d="M 171 357 L 177 358 L 174 371 L 171 370 L 171 365" fill="none" stroke="#F05E39" stroke-width="1.0" stroke-linecap="round" stroke-linejoin="round" opacity="0.55"/>
  <path d="M 209 348 L 207 363 L 209 357 L 218 357 L 211 356 L 210 351 L 226 350 L 210 349" fill="none" stroke="#F05E39" stroke-width="1.0" stroke-linecap="round" stroke-linejoin="round" opacity="0.55"/>
  <path d="M 158 344 L 175 344 L 177 347 L 174 354 L 170 351 L 161 352 L 169 355 L 170 370 L 160 378 L 156 377 L 158 356" fill="none" stroke="#F05E39" stroke-width="1.0" stroke-linecap="round" stroke-linejoin="round" opacity="0.55"/>
  <path d="M 490 342 L 501 423 L 490 345" fill="none" stroke="#F05E39" stroke-width="1.0" stroke-linecap="round" stroke-linejoin="round" opacity="0.55"/>
  <path d="M 311 335 L 297 337 L 298 344 L 308 343 L 301 342 L 302 339 L 309 339 L 312 343 L 313 335" fill="none" stroke="#F05E39" stroke-width="1.0" stroke-linecap="round" stroke-linejoin="round" opacity="0.55"/>
  <path d="M 410 333 L 432 333 L 434 342 L 410 343 L 408 335" fill="none" stroke="#F05E39" stroke-width="1.0" stroke-linecap="round" stroke-linejoin="round" opacity="0.55"/>
  <path d="M 320 331 L 315 334 L 322 334 L 327 338 L 321 331" fill="none" stroke="#F05E39" stroke-width="1.0" stroke-linecap="round" stroke-linejoin="round" opacity="0.55"/>
  <path d="M 265 331 L 258 340 L 240 333 L 241 338 L 208 338 L 248 341 L 247 355 L 232 357 L 247 359 L 245 371 L 212 371 L 207 367 L 208 373 L 235 372 L 247 375 L 246 380 L 239 377 L 207 376 L 246 380 L 244 397 L 239 394 L 237 387 L 244 384 L 212 383 L 210 386 L 207 383 L 207 394 L 217 386 L 228 385 L 246 401 L 247 407 L 242 410 L 208 409 L 206 406 L 209 401 L 206 403 L 205 424 L 208 418 L 213 418 L 207 415 L 209 411 L 215 411 L 216 415 L 220 415 L 221 410 L 232 412 L 231 442 L 232 417 L 235 413 L 247 413 L 239 417 L 239 443 L 239 420 L 244 418 L 245 424 L 248 424 L 250 339 L 267 346 L 267 425 L 269 423 L 268 347 L 273 346 L 259 340 L 270 334 L 273 342 L 278 342 L 273 338 L 279 337 L 281 343 L 288 344 L 290 337 L 277 336 L 266 331" fill="none" stroke="#F05E39" stroke-width="1.0" stroke-linecap="round" stroke-linejoin="round" opacity="0.55"/>
  <path d="M 152 330 L 175 331 L 177 339 L 155 343 L 150 340 L 150 332" fill="none" stroke="#F05E39" stroke-width="1.0" stroke-linecap="round" stroke-linejoin="round" opacity="0.55"/>
  <path d="M 404 330 L 407 352 L 409 346 L 435 348 L 433 356 L 407 355 L 409 375 L 439 376 L 433 380 L 409 378 L 409 384 L 414 380 L 438 380 L 441 399 L 435 351 L 436 334 L 439 331 L 406 330" fill="none" stroke="#F05E39" stroke-width="1.0" stroke-linecap="round" stroke-linejoin="round" opacity="0.55"/>
  <path d="M 375 328 L 373 339 L 338 338 L 312 346 L 311 350 L 299 351 L 294 348 L 286 351 L 282 347 L 279 347 L 282 349 L 278 351 L 272 350 L 273 358 L 275 351 L 280 352 L 280 368 L 278 371 L 272 369 L 273 373 L 280 373 L 272 377 L 278 377 L 280 380 L 272 382 L 271 391 L 278 389 L 282 394 L 280 388 L 275 386 L 281 382 L 280 354 L 283 350 L 311 353 L 312 369 L 285 373 L 288 378 L 308 377 L 286 375 L 289 372 L 314 374 L 312 352 L 315 345 L 331 342 L 334 353 L 333 343 L 340 343 L 337 342 L 339 340 L 355 340 L 356 346 L 360 340 L 372 340 L 376 348 L 373 351 L 336 350 L 336 357 L 342 359 L 337 353 L 340 351 L 373 352 L 376 361 L 372 364 L 376 369 L 369 373 L 343 373 L 342 369 L 337 370 L 337 376 L 368 376 L 370 379 L 366 381 L 368 385 L 365 387 L 361 381 L 337 381 L 336 387 L 334 367 L 335 407 L 336 398 L 362 398 L 351 394 L 337 397 L 337 389 L 348 384 L 357 387 L 374 405 L 376 380 L 379 379 L 376 329" fill="none" stroke="#F05E39" stroke-width="1.0" stroke-linecap="round" stroke-linejoin="round" opacity="0.55"/>
  <path d="M 146 328 L 148 343 L 157 348 L 156 352 L 148 348 L 149 356 L 152 353 L 157 356 L 155 378 L 158 380 L 170 372 L 174 374 L 173 389 L 158 398 L 158 401 L 171 392 L 176 394 L 181 328 L 153 328" fill="none" stroke="#F05E39" stroke-width="1.0" stroke-linecap="round" stroke-linejoin="round" opacity="0.55"/>
  <path d="M 236 320 L 227 324 L 208 324 L 224 325 L 225 335 L 225 327 L 231 322 L 237 326 L 245 325 L 249 328 L 250 334 L 250 324 L 236 321" fill="none" stroke="#F05E39" stroke-width="1.0" stroke-linecap="round" stroke-linejoin="round" opacity="0.55"/>
  <path d="M 213 315 L 208 318 L 224 319 L 221 315 L 215 315" fill="none" stroke="#F05E39" stroke-width="1.0" stroke-linecap="round" stroke-linejoin="round" opacity="0.55"/>
  <path d="M 400 313 L 441 314 L 402 313" fill="none" stroke="#F05E39" stroke-width="1.0" stroke-linecap="round" stroke-linejoin="round" opacity="0.55"/>
  <path d="M 184 310 L 145 312 L 185 311" fill="none" stroke="#F05E39" stroke-width="1.0" stroke-linecap="round" stroke-linejoin="round" opacity="0.55"/>
  <path d="M 242 303 L 246 303 L 248 309 L 240 305" fill="none" stroke="#F05E39" stroke-width="1.0" stroke-linecap="round" stroke-linejoin="round" opacity="0.55"/>
  <path d="M 226 304 L 223 308 L 225 311 L 238 312 L 227 304" fill="none" stroke="#F05E39" stroke-width="1.0" stroke-linecap="round" stroke-linejoin="round" opacity="0.55"/>
  <path d="M 210 301 L 216 301 L 213 305 L 210 302" fill="none" stroke="#F05E39" stroke-width="1.0" stroke-linecap="round" stroke-linejoin="round" opacity="0.55"/>
  <path d="M 83 294 L 81 318 L 84 294" fill="none" stroke="#F05E39" stroke-width="1.0" stroke-linecap="round" stroke-linejoin="round" opacity="0.55"/>
  <path d="M 402 290 L 402 293 L 422 292 L 404 290" fill="none" stroke="#F05E39" stroke-width="1.0" stroke-linecap="round" stroke-linejoin="round" opacity="0.55"/>
  <path d="M 243 288 L 249 293 L 247 299 L 214 299 L 210 297 L 213 294 L 209 290 L 208 311 L 221 300 L 246 299 L 246 303 L 239 302 L 238 305 L 244 311 L 250 312 L 249 293 L 252 292 L 266 300 L 267 319 L 269 316 L 272 328 L 278 327 L 279 332 L 291 333 L 295 330 L 298 334 L 307 333 L 299 333 L 293 324 L 289 324 L 291 329 L 287 332 L 284 331 L 286 324 L 282 324 L 281 331 L 277 326 L 280 324 L 271 322 L 274 318 L 290 317 L 311 319 L 311 324 L 301 324 L 300 328 L 311 328 L 313 331 L 315 319 L 311 316 L 295 316 L 294 305 L 289 317 L 271 316 L 272 311 L 266 298 L 279 297 L 261 295 L 246 288" fill="none" stroke="#F05E39" stroke-width="1.0" stroke-linecap="round" stroke-linejoin="round" opacity="0.55"/>
  <path d="M 300 285 L 308 284 L 310 288 L 300 286" fill="none" stroke="#F05E39" stroke-width="1.0" stroke-linecap="round" stroke-linejoin="round" opacity="0.55"/>
  <path d="M 357 281 L 359 286 L 356 289 L 352 289 L 348 283 L 352 293 L 361 287 L 358 281" fill="none" stroke="#F05E39" stroke-width="1.0" stroke-linecap="round" stroke-linejoin="round" opacity="0.55"/>
  <path d="M 225 274 L 237 282 L 231 290 L 223 290 L 221 293 L 232 292 L 239 281 L 242 282 L 241 285 L 247 281 L 250 283 L 250 276 L 242 280 L 226 274" fill="none" stroke="#F05E39" stroke-width="1.0" stroke-linecap="round" stroke-linejoin="round" opacity="0.55"/>
  <path d="M 343 268 L 346 272 L 338 273 L 341 276 L 350 273 L 344 269" fill="none" stroke="#F05E39" stroke-width="1.0" stroke-linecap="round" stroke-linejoin="round" opacity="0.55"/>
  <path d="M 268 266 L 252 274 L 269 267" fill="none" stroke="#F05E39" stroke-width="1.0" stroke-linecap="round" stroke-linejoin="round" opacity="0.55"/>
  <path d="M 243 260 L 223 262 L 211 268 L 210 285 L 219 290 L 210 281 L 210 274 L 216 267 L 231 263 L 238 265 L 244 260" fill="none" stroke="#F05E39" stroke-width="1.0" stroke-linecap="round" stroke-linejoin="round" opacity="0.55"/>
  <path d="M 254 258 L 243 266 L 246 273 L 234 271 L 246 275 L 250 262 L 259 263" fill="none" stroke="#F05E39" stroke-width="1.0" stroke-linecap="round" stroke-linejoin="round" opacity="0.55"/>
  <path d="M 398 257 L 402 280 L 411 278 L 404 276 L 404 259 L 427 261 L 427 267 L 421 270 L 426 272 L 426 288 L 429 295 L 427 299 L 422 296 L 430 305 L 427 310 L 432 310 L 428 274 L 431 257 L 407 257" fill="none" stroke="#F05E39" stroke-width="1.0" stroke-linecap="round" stroke-linejoin="round" opacity="0.55"/>
  <path d="M 151 255 L 154 269 L 152 299 L 155 300 L 148 306 L 161 308 L 162 291 L 178 289 L 180 308 L 182 281 L 179 288 L 164 289 L 162 283 L 161 303 L 158 307 L 155 305 L 155 259 L 179 257 L 179 274 L 169 276 L 182 277 L 184 255 L 163 255" fill="none" stroke="#F05E39" stroke-width="1.0" stroke-linecap="round" stroke-linejoin="round" opacity="0.55"/>
  <path d="M 296 253 L 296 260 L 299 259 L 299 255 L 324 258 L 297 253" fill="none" stroke="#F05E39" stroke-width="1.0" stroke-linecap="round" stroke-linejoin="round" opacity="0.55"/>
  <path d="M 287 253 L 260 258 L 285 255 L 284 259 L 288 260 L 288 253" fill="none" stroke="#F05E39" stroke-width="1.0" stroke-linecap="round" stroke-linejoin="round" opacity="0.55"/>
  <path d="M 413 251 L 411 254 L 419 254 L 418 251" fill="none" stroke="#F05E39" stroke-width="1.0" stroke-linecap="round" stroke-linejoin="round" opacity="0.55"/>
  <path d="M 486 245 L 488 261 L 494 274 L 514 425 L 519 435 L 528 478 L 529 501 L 534 521 L 532 525 L 534 522 L 533 531 L 537 539 L 535 543 L 540 575 L 545 591 L 543 595 L 547 603 L 545 609 L 549 635 L 554 645 L 597 923 L 524 444 L 517 427 L 496 274 L 489 245" fill="none" stroke="#F05E39" stroke-width="1.0" stroke-linecap="round" stroke-linejoin="round" opacity="0.55"/>
  <path d="M 348 240 L 336 244 L 328 252 L 346 265 L 359 265 L 369 272 L 370 277 L 365 281 L 357 275 L 342 280 L 341 283 L 360 276 L 365 284 L 371 280 L 372 285 L 367 292 L 373 295 L 372 299 L 349 298 L 346 301 L 335 297 L 332 293 L 333 286 L 345 296 L 347 292 L 343 286 L 342 290 L 337 288 L 337 278 L 323 268 L 330 261 L 334 265 L 333 271 L 341 267 L 330 259 L 322 267 L 293 262 L 273 266 L 272 273 L 283 265 L 303 266 L 309 272 L 308 284 L 273 280 L 271 275 L 269 280 L 267 272 L 266 275 L 267 284 L 274 280 L 312 292 L 311 273 L 307 267 L 313 266 L 329 273 L 330 299 L 337 302 L 351 300 L 361 310 L 363 305 L 359 307 L 355 302 L 373 303 L 372 309 L 366 312 L 367 314 L 371 311 L 373 315 L 365 317 L 272 287 L 272 291 L 291 297 L 292 302 L 308 302 L 311 308 L 307 311 L 312 312 L 312 302 L 329 306 L 331 311 L 320 307 L 316 317 L 320 310 L 331 312 L 332 324 L 334 308 L 338 312 L 375 321 L 372 324 L 357 323 L 334 316 L 335 319 L 341 318 L 352 322 L 328 328 L 333 336 L 336 334 L 334 328 L 347 328 L 356 323 L 358 325 L 355 330 L 358 329 L 359 334 L 361 325 L 375 326 L 371 271 L 363 264 L 348 263 L 331 254 L 335 247 L 347 243 L 361 243 L 375 251 L 370 245 L 355 240" fill="none" stroke="#F05E39" stroke-width="1.0" stroke-linecap="round" stroke-linejoin="round" opacity="0.55"/>
  <path d="M 357 226 L 350 228 L 349 231 L 357 231 L 358 227" fill="none" stroke="#F05E39" stroke-width="1.0" stroke-linecap="round" stroke-linejoin="round" opacity="0.55"/>
  <path d="M 482 223 L 483 235 L 489 241 L 489 238 L 485 237 L 483 223" fill="none" stroke="#F05E39" stroke-width="1.0" stroke-linecap="round" stroke-linejoin="round" opacity="0.55"/>
  <path d="M 473 219 L 486 309 L 475 219" fill="none" stroke="#F05E39" stroke-width="1.0" stroke-linecap="round" stroke-linejoin="round" opacity="0.55"/>
  <path d="M 448 216 L 495 626 L 535 941 L 478 472 L 455 255 L 449 223 L 452 218 L 449 216" fill="none" stroke="#F05E39" stroke-width="1.0" stroke-linecap="round" stroke-linejoin="round" opacity="0.55"/>
  <path d="M 387 213 L 404 431 L 435 431 L 404 427 L 405 407 L 388 213" fill="none" stroke="#F05E39" stroke-width="1.0" stroke-linecap="round" stroke-linejoin="round" opacity="0.55"/>
  <path d="M 167 213 L 165 238 L 169 215" fill="none" stroke="#F05E39" stroke-width="1.0" stroke-linecap="round" stroke-linejoin="round" opacity="0.55"/>
  <path d="M 118 207 L 111 209 L 115 212 L 118 208 L 134 209 L 120 207" fill="none" stroke="#F05E39" stroke-width="1.0" stroke-linecap="round" stroke-linejoin="round" opacity="0.55"/>
  <path d="M 181 205 L 176 207 L 196 208 L 182 205" fill="none" stroke="#F05E39" stroke-width="1.0" stroke-linecap="round" stroke-linejoin="round" opacity="0.55"/>
  <path d="M 333 191 L 333 208 L 346 209 L 347 225 L 347 206 L 335 203 L 334 192" fill="none" stroke="#F05E39" stroke-width="1.0" stroke-linecap="round" stroke-linejoin="round" opacity="0.55"/>
  <path d="M 138 191 L 145 193 L 142 259 L 88 941 L 98 843 L 129 430 L 158 429 L 129 425 L 132 418 L 146 208 L 152 206 L 167 210 L 175 209 L 149 206 L 144 191" fill="none" stroke="#F05E39" stroke-width="1.0" stroke-linecap="round" stroke-linejoin="round" opacity="0.55"/>
  <path d="M 346 188 L 362 189 L 360 204 L 354 197 L 346 194 L 344 188" fill="none" stroke="#F05E39" stroke-width="1.0" stroke-linecap="round" stroke-linejoin="round" opacity="0.55"/>
  <path d="M 278 179 L 300 178 L 304 183 L 300 186 L 278 185 L 277 179" fill="none" stroke="#F05E39" stroke-width="1.0" stroke-linecap="round" stroke-linejoin="round" opacity="0.55"/>
  <path d="M 274 176 L 275 198 L 277 186 L 304 188 L 304 204 L 297 205 L 295 200 L 296 225 L 287 229 L 295 231 L 296 209 L 316 209 L 306 206 L 307 177 L 275 177" fill="none" stroke="#F05E39" stroke-width="1.0" stroke-linecap="round" stroke-linejoin="round" opacity="0.55"/>
  <path d="M 363 174 L 362 178 L 331 177 L 334 181 L 362 181 L 359 187 L 333 185 L 333 188 L 354 199 L 356 224 L 358 207 L 376 208 L 364 206 L 365 174" fill="none" stroke="#F05E39" stroke-width="1.0" stroke-linecap="round" stroke-linejoin="round" opacity="0.55"/>
  <path d="M 287 164 L 292 165 L 294 171 L 286 173 L 295 174 L 296 168 L 292 164" fill="none" stroke="#F05E39" stroke-width="1.0" stroke-linecap="round" stroke-linejoin="round" opacity="0.55"/>
  <path d="M 233 164 L 236 170 L 228 173 L 237 173 L 238 168 L 235 164" fill="none" stroke="#F05E39" stroke-width="1.0" stroke-linecap="round" stroke-linejoin="round" opacity="0.55"/>
  <path d="M 449 163 L 454 208 L 450 164" fill="none" stroke="#F05E39" stroke-width="1.0" stroke-linecap="round" stroke-linejoin="round" opacity="0.55"/>
  <path d="M 459 158 L 457 164 L 461 170 L 461 190 L 467 209 L 447 213 L 469 212 L 473 216 L 480 216 L 471 213 L 468 200 L 464 197 L 460 159" fill="none" stroke="#F05E39" stroke-width="1.0" stroke-linecap="round" stroke-linejoin="round" opacity="0.55"/>
  <path d="M 359 154 L 357 157 L 350 157 L 362 158 L 361 154" fill="none" stroke="#F05E39" stroke-width="1.0" stroke-linecap="round" stroke-linejoin="round" opacity="0.55"/>
  <path d="M 427 144 L 434 206 L 415 208 L 414 211 L 406 212 L 435 209 L 428 144" fill="none" stroke="#F05E39" stroke-width="1.0" stroke-linecap="round" stroke-linejoin="round" opacity="0.55"/>
  <path d="M 381 141 L 386 209 L 404 210 L 405 208 L 391 208 L 387 205 L 385 157 L 382 154 L 385 149 L 382 147 L 382 141" fill="none" stroke="#F05E39" stroke-width="1.0" stroke-linecap="round" stroke-linejoin="round" opacity="0.55"/>
  <path d="M 229 141 L 228 165 L 230 142" fill="none" stroke="#F05E39" stroke-width="1.0" stroke-linecap="round" stroke-linejoin="round" opacity="0.55"/>
  <path d="M 354 135 L 342 138 L 369 137 L 359 135" fill="none" stroke="#F05E39" stroke-width="1.0" stroke-linecap="round" stroke-linejoin="round" opacity="0.55"/>
  <path d="M 155 133 L 152 136 L 134 135 L 132 138 L 124 139 L 154 135 L 199 135 L 156 133" fill="none" stroke="#F05E39" stroke-width="1.0" stroke-linecap="round" stroke-linejoin="round" opacity="0.55"/>
  <path d="M 285 127 L 294 129 L 283 129" fill="none" stroke="#F05E39" stroke-width="1.0" stroke-linecap="round" stroke-linejoin="round" opacity="0.55"/>
  <path d="M 228 128 L 238 128 L 236 131 L 228 129" fill="none" stroke="#F05E39" stroke-width="1.0" stroke-linecap="round" stroke-linejoin="round" opacity="0.55"/>
  <path d="M 282 125 L 282 135 L 293 135 L 286 139 L 295 136 L 313 137 L 295 136 L 295 126 L 284 125" fill="none" stroke="#F05E39" stroke-width="1.0" stroke-linecap="round" stroke-linejoin="round" opacity="0.55"/>
  <path d="M 227 125 L 226 134 L 236 133 L 229 138 L 239 135 L 239 125" fill="none" stroke="#F05E39" stroke-width="1.0" stroke-linecap="round" stroke-linejoin="round" opacity="0.55"/>
  <path d="M 438 114 L 442 136 L 439 139 L 426 140 L 452 143 L 445 141 L 442 118 L 438 115" fill="none" stroke="#F05E39" stroke-width="1.0" stroke-linecap="round" stroke-linejoin="round" opacity="0.55"/>
  <path d="M 375 99 L 380 138 L 425 137 L 422 134 L 420 112 L 420 136 L 382 136 L 378 115 L 380 113 L 377 110 L 379 105 L 375 101" fill="none" stroke="#F05E39" stroke-width="1.0" stroke-linecap="round" stroke-linejoin="round" opacity="0.55"/>
  <path d="M 319 98 L 328 249 L 328 244 L 333 239 L 347 235 L 357 235 L 374 241 L 363 235 L 343 234 L 332 239 L 328 236 L 330 217 L 327 210 L 331 208 L 327 206 L 326 198 L 327 161 L 324 156 L 327 154 L 323 138 L 349 134 L 350 126 L 338 126 L 338 129 L 346 127 L 349 130 L 338 131 L 336 136 L 325 135 L 322 109 L 324 103 L 320 98" fill="none" stroke="#F05E39" stroke-width="1.0" stroke-linecap="round" stroke-linejoin="round" opacity="0.55"/>
  <path d="M 264 97 L 266 252 L 279 244 L 290 242 L 302 243 L 313 250 L 307 243 L 298 240 L 284 240 L 266 250 L 270 240 L 284 235 L 299 235 L 314 241 L 300 234 L 282 234 L 267 239 L 267 226 L 271 223 L 268 221 L 268 208 L 284 207 L 286 226 L 288 219 L 286 203 L 277 204 L 275 201 L 273 207 L 267 203 L 267 153 L 270 147 L 267 148 L 266 138 L 280 136 L 267 133 L 266 97" fill="none" stroke="#F05E39" stroke-width="1.0" stroke-linecap="round" stroke-linejoin="round" opacity="0.55"/>
  <path d="M 209 96 L 205 260 L 177 941 L 181 907 L 199 429 L 207 429 L 198 426 L 201 423 L 205 255 L 211 247 L 222 242 L 238 242 L 252 251 L 246 243 L 234 239 L 218 241 L 206 252 L 205 244 L 209 239 L 225 234 L 236 234 L 251 240 L 254 238 L 222 233 L 207 240 L 207 216 L 211 213 L 206 209 L 210 206 L 224 206 L 226 221 L 227 205 L 223 203 L 246 187 L 245 203 L 234 204 L 235 226 L 226 228 L 236 230 L 236 209 L 256 208 L 247 205 L 249 176 L 234 177 L 243 177 L 246 180 L 244 185 L 217 184 L 238 188 L 222 203 L 218 201 L 220 190 L 216 204 L 208 204 L 208 176 L 211 173 L 209 137 L 223 135 L 211 133 L 213 102 L 210 96" fill="none" stroke="#F05E39" stroke-width="1.0" stroke-linecap="round" stroke-linejoin="round" opacity="0.55"/>
  <path d="M 377 90 L 418 93 L 404 90" fill="none" stroke="#F05E39" stroke-width="1.0" stroke-linecap="round" stroke-linejoin="round" opacity="0.55"/>
  <path d="M 319 89 L 342 92 L 373 90 L 335 89" fill="none" stroke="#F05E39" stroke-width="1.0" stroke-linecap="round" stroke-linejoin="round" opacity="0.55"/>
  <path d="M 209 88 L 211 91 L 263 89 L 277 92 L 308 92 L 315 89 L 285 91 L 265 88 L 223 88" fill="none" stroke="#F05E39" stroke-width="1.0" stroke-linecap="round" stroke-linejoin="round" opacity="0.55"/>
  <path d="M 161 87 L 162 90 L 201 91 L 207 88 L 163 87" fill="none" stroke="#F05E39" stroke-width="1.0" stroke-linecap="round" stroke-linejoin="round" opacity="0.55"/>
</svg>