<svg xmlns="http://www.w3.org/2000/svg" viewBox="0 0 1600 900" fill="none" stroke-linecap="round" stroke-linejoin="round">
<polyline points="645.0,676.0 470.0,742.0 300.0,792.0 0.0,820.0" fill="none" stroke="rgba(249,115,22,0.5)" stroke-width="1.6"/>
<polyline points="645.0,660.0 470.0,724.0 300.0,772.0 0.0,798.0" fill="none" stroke="rgba(249,115,22,0.4)" stroke-width="1.2"/>
<polyline points="645.0,662.0 1322.0,470.0 1600.0,452.0" fill="none" stroke="rgba(249,115,22,0.55)" stroke-width="1.6"/>
<polyline points="645.0,690.0 1322.0,486.0 1600.0,470.0" fill="none" stroke="rgba(249,115,22,0.45)" stroke-width="1.3"/>
<line x1="675.0" y1="655.4" x2="675.0" y2="688.5" stroke="rgba(249,115,22,0.22)" stroke-width="0.8"/>
<line x1="675.0" y1="688.5" x2="695.1" y2="651.0" stroke="rgba(249,115,22,0.18)" stroke-width="0.7"/>
<line x1="695.1" y1="651.0" x2="695.1" y2="683.5" stroke="rgba(249,115,22,0.22)" stroke-width="0.8"/>
<line x1="695.1" y1="651.0" x2="715.2" y2="678.5" stroke="rgba(249,115,22,0.18)" stroke-width="0.7"/>
<line x1="715.2" y1="646.6" x2="715.2" y2="678.5" stroke="rgba(249,115,22,0.22)" stroke-width="0.8"/>
<line x1="715.2" y1="678.5" x2="735.3" y2="642.1" stroke="rgba(249,115,22,0.18)" stroke-width="0.7"/>
<line x1="735.3" y1="642.1" x2="735.3" y2="673.5" stroke="rgba(249,115,22,0.22)" stroke-width="0.8"/>
<line x1="735.3" y1="642.1" x2="755.4" y2="668.5" stroke="rgba(249,115,22,0.18)" stroke-width="0.7"/>
<line x1="755.4" y1="637.7" x2="755.4" y2="668.5" stroke="rgba(249,115,22,0.22)" stroke-width="0.8"/>
<line x1="755.4" y1="668.5" x2="775.5" y2="633.3" stroke="rgba(249,115,22,0.18)" stroke-width="0.7"/>
<line x1="775.5" y1="633.3" x2="775.5" y2="663.5" stroke="rgba(249,115,22,0.22)" stroke-width="0.8"/>
<line x1="775.5" y1="633.3" x2="795.7" y2="658.5" stroke="rgba(249,115,22,0.18)" stroke-width="0.7"/>
<line x1="795.7" y1="628.9" x2="795.7" y2="658.5" stroke="rgba(249,115,22,0.22)" stroke-width="0.8"/>
<line x1="795.7" y1="658.5" x2="815.8" y2="624.5" stroke="rgba(249,115,22,0.18)" stroke-width="0.7"/>
<line x1="815.8" y1="624.5" x2="815.8" y2="653.4" stroke="rgba(249,115,22,0.22)" stroke-width="0.8"/>
<line x1="815.8" y1="624.5" x2="835.9" y2="648.4" stroke="rgba(249,115,22,0.18)" stroke-width="0.7"/>
<line x1="835.9" y1="620.0" x2="835.9" y2="648.4" stroke="rgba(249,115,22,0.22)" stroke-width="0.8"/>
<line x1="835.9" y1="648.4" x2="856.0" y2="615.6" stroke="rgba(249,115,22,0.18)" stroke-width="0.7"/>
<line x1="856.0" y1="615.6" x2="856.0" y2="643.4" stroke="rgba(249,115,22,0.22)" stroke-width="0.8"/>
<line x1="856.0" y1="615.6" x2="876.1" y2="638.4" stroke="rgba(249,115,22,0.18)" stroke-width="0.7"/>
<line x1="876.1" y1="611.2" x2="876.1" y2="638.4" stroke="rgba(249,115,22,0.22)" stroke-width="0.8"/>
<line x1="876.1" y1="638.4" x2="896.2" y2="606.8" stroke="rgba(249,115,22,0.18)" stroke-width="0.7"/>
<line x1="896.2" y1="606.8" x2="896.2" y2="633.4" stroke="rgba(249,115,22,0.22)" stroke-width="0.8"/>
<line x1="896.2" y1="606.8" x2="916.3" y2="628.4" stroke="rgba(249,115,22,0.18)" stroke-width="0.7"/>
<line x1="916.3" y1="602.3" x2="916.3" y2="628.4" stroke="rgba(249,115,22,0.22)" stroke-width="0.8"/>
<line x1="916.3" y1="628.4" x2="936.4" y2="597.9" stroke="rgba(249,115,22,0.18)" stroke-width="0.7"/>
<line x1="936.4" y1="597.9" x2="936.4" y2="623.4" stroke="rgba(249,115,22,0.22)" stroke-width="0.8"/>
<line x1="936.4" y1="597.9" x2="956.5" y2="618.4" stroke="rgba(249,115,22,0.18)" stroke-width="0.7"/>
<line x1="956.5" y1="593.5" x2="956.5" y2="618.4" stroke="rgba(249,115,22,0.22)" stroke-width="0.8"/>
<line x1="956.5" y1="618.4" x2="976.6" y2="589.1" stroke="rgba(249,115,22,0.18)" stroke-width="0.7"/>
<line x1="976.6" y1="589.1" x2="976.6" y2="613.4" stroke="rgba(249,115,22,0.22)" stroke-width="0.8"/>
<line x1="976.6" y1="589.1" x2="996.7" y2="608.3" stroke="rgba(249,115,22,0.18)" stroke-width="0.7"/>
<line x1="996.7" y1="584.7" x2="996.7" y2="608.3" stroke="rgba(249,115,22,0.22)" stroke-width="0.8"/>
<line x1="996.7" y1="608.3" x2="1016.8" y2="580.2" stroke="rgba(249,115,22,0.18)" stroke-width="0.7"/>
<line x1="1016.8" y1="580.2" x2="1016.8" y2="603.3" stroke="rgba(249,115,22,0.22)" stroke-width="0.8"/>
<line x1="1016.8" y1="580.2" x2="1037.0" y2="598.3" stroke="rgba(249,115,22,0.18)" stroke-width="0.7"/>
<line x1="1037.0" y1="575.8" x2="1037.0" y2="598.3" stroke="rgba(249,115,22,0.22)" stroke-width="0.8"/>
<line x1="1037.0" y1="598.3" x2="1057.1" y2="571.4" stroke="rgba(249,115,22,0.18)" stroke-width="0.7"/>
<line x1="1057.1" y1="571.4" x2="1057.1" y2="593.3" stroke="rgba(249,115,22,0.22)" stroke-width="0.8"/>
<line x1="1057.1" y1="571.4" x2="1077.2" y2="588.3" stroke="rgba(249,115,22,0.18)" stroke-width="0.7"/>
<line x1="1077.2" y1="567.0" x2="1077.2" y2="588.3" stroke="rgba(249,115,22,0.22)" stroke-width="0.8"/>
<line x1="1077.2" y1="588.3" x2="1097.3" y2="562.5" stroke="rgba(249,115,22,0.18)" stroke-width="0.7"/>
<line x1="1097.3" y1="562.5" x2="1097.3" y2="583.3" stroke="rgba(249,115,22,0.22)" stroke-width="0.8"/>
<line x1="1097.3" y1="562.5" x2="1117.4" y2="578.3" stroke="rgba(249,115,22,0.18)" stroke-width="0.7"/>
<line x1="1117.4" y1="558.1" x2="1117.4" y2="578.3" stroke="rgba(249,115,22,0.22)" stroke-width="0.8"/>
<line x1="1117.4" y1="578.3" x2="1137.5" y2="553.7" stroke="rgba(249,115,22,0.18)" stroke-width="0.7"/>
<line x1="1137.5" y1="553.7" x2="1137.5" y2="573.3" stroke="rgba(249,115,22,0.22)" stroke-width="0.8"/>
<line x1="1137.5" y1="553.7" x2="1157.6" y2="568.3" stroke="rgba(249,115,22,0.18)" stroke-width="0.7"/>
<line x1="1157.6" y1="549.3" x2="1157.6" y2="568.3" stroke="rgba(249,115,22,0.22)" stroke-width="0.8"/>
<line x1="1157.6" y1="568.3" x2="1177.7" y2="544.9" stroke="rgba(249,115,22,0.18)" stroke-width="0.7"/>
<line x1="1177.7" y1="544.9" x2="1177.7" y2="563.2" stroke="rgba(249,115,22,0.22)" stroke-width="0.8"/>
<line x1="1177.7" y1="544.9" x2="1197.8" y2="558.2" stroke="rgba(249,115,22,0.18)" stroke-width="0.7"/>
<line x1="1197.8" y1="540.4" x2="1197.8" y2="558.2" stroke="rgba(249,115,22,0.22)" stroke-width="0.8"/>
<line x1="1197.8" y1="558.2" x2="1217.9" y2="536.0" stroke="rgba(249,115,22,0.18)" stroke-width="0.7"/>
<line x1="1217.9" y1="536.0" x2="1217.9" y2="553.2" stroke="rgba(249,115,22,0.22)" stroke-width="0.8"/>
<line x1="1217.9" y1="536.0" x2="1238.0" y2="548.2" stroke="rgba(249,115,22,0.18)" stroke-width="0.7"/>
<line x1="1238.0" y1="531.6" x2="1238.0" y2="548.2" stroke="rgba(249,115,22,0.22)" stroke-width="0.8"/>
<line x1="1238.0" y1="548.2" x2="1258.2" y2="527.2" stroke="rgba(249,115,22,0.18)" stroke-width="0.7"/>
<line x1="1258.2" y1="527.2" x2="1258.2" y2="543.2" stroke="rgba(249,115,22,0.22)" stroke-width="0.8"/>
<line x1="1258.2" y1="527.2" x2="1278.3" y2="538.2" stroke="rgba(249,115,22,0.18)" stroke-width="0.7"/>
<line x1="1278.3" y1="522.7" x2="1278.3" y2="538.2" stroke="rgba(249,115,22,0.22)" stroke-width="0.8"/>
<line x1="1278.3" y1="538.2" x2="1298.4" y2="518.3" stroke="rgba(249,115,22,0.18)" stroke-width="0.7"/>
<line x1="1298.4" y1="518.3" x2="1298.4" y2="533.2" stroke="rgba(249,115,22,0.22)" stroke-width="0.8"/>
<line x1="1298.4" y1="518.3" x2="1318.5" y2="528.2" stroke="rgba(249,115,22,0.18)" stroke-width="0.7"/>
<line x1="1318.5" y1="513.9" x2="1318.5" y2="528.2" stroke="rgba(249,115,22,0.22)" stroke-width="0.8"/>
<line x1="1318.5" y1="528.2" x2="1338.6" y2="509.5" stroke="rgba(249,115,22,0.18)" stroke-width="0.7"/>
<line x1="1338.6" y1="509.5" x2="1338.6" y2="523.1" stroke="rgba(249,115,22,0.22)" stroke-width="0.8"/>
<line x1="1338.6" y1="509.5" x2="1358.7" y2="518.1" stroke="rgba(249,115,22,0.18)" stroke-width="0.7"/>
<line x1="1358.7" y1="505.1" x2="1358.7" y2="518.1" stroke="rgba(249,115,22,0.22)" stroke-width="0.8"/>
<line x1="1358.7" y1="518.1" x2="1378.8" y2="500.6" stroke="rgba(249,115,22,0.18)" stroke-width="0.7"/>
<line x1="1378.8" y1="500.6" x2="1378.8" y2="513.1" stroke="rgba(249,115,22,0.22)" stroke-width="0.8"/>
<line x1="1378.8" y1="500.6" x2="1398.9" y2="508.1" stroke="rgba(249,115,22,0.18)" stroke-width="0.7"/>
<line x1="1398.9" y1="496.2" x2="1398.9" y2="508.1" stroke="rgba(249,115,22,0.22)" stroke-width="0.8"/>
<line x1="1398.9" y1="508.1" x2="1419.0" y2="491.8" stroke="rgba(249,115,22,0.18)" stroke-width="0.7"/>
<line x1="1419.0" y1="491.8" x2="1419.0" y2="503.1" stroke="rgba(249,115,22,0.22)" stroke-width="0.8"/>
<line x1="1419.0" y1="491.8" x2="1439.1" y2="498.1" stroke="rgba(249,115,22,0.18)" stroke-width="0.7"/>
<line x1="1439.1" y1="487.4" x2="1439.1" y2="498.1" stroke="rgba(249,115,22,0.22)" stroke-width="0.8"/>
<line x1="1439.1" y1="498.1" x2="1459.2" y2="483.0" stroke="rgba(249,115,22,0.18)" stroke-width="0.7"/>
<line x1="1459.2" y1="483.0" x2="1459.2" y2="493.1" stroke="rgba(249,115,22,0.22)" stroke-width="0.8"/>
<line x1="1459.2" y1="483.0" x2="1479.3" y2="488.1" stroke="rgba(249,115,22,0.18)" stroke-width="0.7"/>
<line x1="1479.3" y1="478.5" x2="1479.3" y2="488.1" stroke="rgba(249,115,22,0.22)" stroke-width="0.8"/>
<line x1="1479.3" y1="488.1" x2="1499.5" y2="474.1" stroke="rgba(249,115,22,0.18)" stroke-width="0.7"/>
<line x1="1499.5" y1="474.1" x2="1499.5" y2="483.1" stroke="rgba(249,115,22,0.22)" stroke-width="0.8"/>
<line x1="1499.5" y1="474.1" x2="1519.6" y2="478.0" stroke="rgba(249,115,22,0.18)" stroke-width="0.7"/>
<line x1="1519.6" y1="469.7" x2="1519.6" y2="478.0" stroke="rgba(249,115,22,0.22)" stroke-width="0.8"/>
<line x1="1519.6" y1="478.0" x2="1539.7" y2="465.3" stroke="rgba(249,115,22,0.18)" stroke-width="0.7"/>
<line x1="1539.7" y1="465.3" x2="1539.7" y2="473.0" stroke="rgba(249,115,22,0.22)" stroke-width="0.8"/>
<line x1="1539.7" y1="465.3" x2="1559.8" y2="468.0" stroke="rgba(249,115,22,0.18)" stroke-width="0.7"/>
<line x1="1559.8" y1="460.8" x2="1559.8" y2="468.0" stroke="rgba(249,115,22,0.22)" stroke-width="0.8"/>
<line x1="1559.8" y1="468.0" x2="1579.9" y2="456.4" stroke="rgba(249,115,22,0.18)" stroke-width="0.7"/>
<line x1="1579.9" y1="456.4" x2="1579.9" y2="463.0" stroke="rgba(249,115,22,0.22)" stroke-width="0.8"/>
<line x1="1579.9" y1="456.4" x2="1600.0" y2="458.0" stroke="rgba(249,115,22,0.18)" stroke-width="0.7"/>
<line x1="1600.0" y1="452.0" x2="1600.0" y2="458.0" stroke="rgba(249,115,22,0.22)" stroke-width="0.8"/>
<line x1="665.6" y1="90.6" x2="665.6" y2="654.2" stroke="rgba(249,115,22,0.24)" stroke-width="0.8"/>
<line x1="688.2" y1="108.7" x2="688.2" y2="647.9" stroke="rgba(249,115,22,0.24)" stroke-width="0.8"/>
<line x1="710.8" y1="126.1" x2="710.8" y2="641.5" stroke="rgba(249,115,22,0.24)" stroke-width="0.8"/>
<line x1="733.4" y1="143.0" x2="733.4" y2="635.2" stroke="rgba(249,115,22,0.24)" stroke-width="0.8"/>
<line x1="756.0" y1="159.3" x2="756.0" y2="628.8" stroke="rgba(249,115,22,0.24)" stroke-width="0.8"/>
<line x1="778.6" y1="175.0" x2="778.6" y2="622.5" stroke="rgba(249,115,22,0.24)" stroke-width="0.8"/>
<line x1="801.3" y1="190.1" x2="801.3" y2="616.1" stroke="rgba(249,115,22,0.24)" stroke-width="0.8"/>
<line x1="823.9" y1="204.6" x2="823.9" y2="609.8" stroke="rgba(249,115,22,0.24)" stroke-width="0.8"/>
<line x1="846.5" y1="218.5" x2="846.5" y2="603.5" stroke="rgba(249,115,22,0.24)" stroke-width="0.8"/>
<line x1="869.1" y1="231.8" x2="869.1" y2="597.1" stroke="rgba(249,115,22,0.24)" stroke-width="0.8"/>
<line x1="891.7" y1="244.5" x2="891.7" y2="590.8" stroke="rgba(249,115,22,0.24)" stroke-width="0.8"/>
<line x1="914.4" y1="256.6" x2="914.4" y2="584.4" stroke="rgba(249,115,22,0.24)" stroke-width="0.8"/>
<line x1="937.0" y1="268.2" x2="937.0" y2="578.1" stroke="rgba(249,115,22,0.24)" stroke-width="0.8"/>
<line x1="959.6" y1="279.1" x2="959.6" y2="571.7" stroke="rgba(249,115,22,0.24)" stroke-width="0.8"/>
<line x1="982.3" y1="289.5" x2="982.3" y2="565.4" stroke="rgba(249,115,22,0.24)" stroke-width="0.8"/>
<line x1="1004.9" y1="299.3" x2="1004.9" y2="559.0" stroke="rgba(249,115,22,0.24)" stroke-width="0.8"/>
<line x1="1027.5" y1="308.5" x2="1027.5" y2="552.6" stroke="rgba(249,115,22,0.24)" stroke-width="0.8"/>
<line x1="1050.2" y1="317.0" x2="1050.2" y2="546.3" stroke="rgba(249,115,22,0.24)" stroke-width="0.8"/>
<line x1="1072.8" y1="325.0" x2="1072.8" y2="539.9" stroke="rgba(249,115,22,0.24)" stroke-width="0.8"/>
<line x1="1095.4" y1="332.4" x2="1095.4" y2="533.6" stroke="rgba(249,115,22,0.24)" stroke-width="0.8"/>
<line x1="1118.1" y1="339.3" x2="1118.1" y2="527.2" stroke="rgba(249,115,22,0.24)" stroke-width="0.8"/>
<line x1="1140.7" y1="345.5" x2="1140.7" y2="520.9" stroke="rgba(249,115,22,0.24)" stroke-width="0.8"/>
<line x1="1163.4" y1="351.1" x2="1163.4" y2="514.5" stroke="rgba(249,115,22,0.24)" stroke-width="0.8"/>
<line x1="1186.0" y1="356.2" x2="1186.0" y2="508.2" stroke="rgba(249,115,22,0.24)" stroke-width="0.8"/>
<line x1="1208.7" y1="360.6" x2="1208.7" y2="501.8" stroke="rgba(249,115,22,0.24)" stroke-width="0.8"/>
<line x1="1231.4" y1="364.5" x2="1231.4" y2="495.4" stroke="rgba(249,115,22,0.24)" stroke-width="0.8"/>
<line x1="1254.0" y1="367.7" x2="1254.0" y2="489.1" stroke="rgba(249,115,22,0.24)" stroke-width="0.8"/>
<line x1="1276.7" y1="370.4" x2="1276.7" y2="482.7" stroke="rgba(249,115,22,0.24)" stroke-width="0.8"/>
<line x1="1299.3" y1="372.5" x2="1299.3" y2="476.4" stroke="rgba(249,115,22,0.24)" stroke-width="0.8"/>
<line x1="580.6" y1="106.6" x2="580.6" y2="690.4" stroke="rgba(249,115,22,0.2)" stroke-width="0.8"/>
<line x1="518.6" y1="139.4" x2="518.6" y2="704.2" stroke="rgba(249,115,22,0.2)" stroke-width="0.8"/>
<line x1="456.9" y1="170.2" x2="456.9" y2="718.0" stroke="rgba(249,115,22,0.2)" stroke-width="0.8"/>
<line x1="395.6" y1="199.0" x2="395.6" y2="731.7" stroke="rgba(249,115,22,0.2)" stroke-width="0.8"/>
<line x1="334.8" y1="226.0" x2="334.8" y2="745.3" stroke="rgba(249,115,22,0.2)" stroke-width="0.8"/>
<line x1="274.2" y1="251.0" x2="274.2" y2="758.8" stroke="rgba(249,115,22,0.2)" stroke-width="0.8"/>
<line x1="214.1" y1="274.2" x2="214.1" y2="772.2" stroke="rgba(249,115,22,0.2)" stroke-width="0.8"/>
<line x1="154.4" y1="295.4" x2="154.4" y2="785.5" stroke="rgba(249,115,22,0.2)" stroke-width="0.8"/>
<line x1="95.0" y1="314.6" x2="95.0" y2="798.8" stroke="rgba(249,115,22,0.2)" stroke-width="0.8"/>
<line x1="1302.0" y1="486.0" x2="1313.0" y2="372.0" stroke="rgba(249,115,22,0.34)" stroke-width="1.1"/>
<line x1="1342.0" y1="486.0" x2="1331.0" y2="372.0" stroke="rgba(249,115,22,0.34)" stroke-width="1.1"/>
<line x1="1313.0" y1="372.0" x2="1331.0" y2="372.0" stroke="rgba(249,115,22,0.34)" stroke-width="1.1"/>
<line x1="1317.5" y1="366.0" x2="1326.5" y2="366.0" stroke="rgba(249,115,22,0.34)" stroke-width="1.1"/>
<line x1="1310.1" y1="402.0" x2="1333.9" y2="402.0" stroke="rgba(249,115,22,0.34)" stroke-width="1.1"/>
<line x1="1309.3" y1="410.0" x2="1334.7" y2="410.0" stroke="rgba(249,115,22,0.34)" stroke-width="0.77"/>
<line x1="1306.6" y1="438.0" x2="1337.4" y2="438.0" stroke="rgba(249,115,22,0.34)" stroke-width="1.1"/>
<line x1="1305.9" y1="446.0" x2="1338.1" y2="446.0" stroke="rgba(249,115,22,0.34)" stroke-width="0.77"/>
<polyline points="1322.0,374.0 1326.9,374.6 1331.8,375.3 1336.8,375.9 1341.7,376.7 1346.5,377.4 1351.4,378.2 1356.3,379.0 1361.1,379.9 1366.0,380.7 1370.8,381.7 1375.7,382.6 1380.5,383.6 1385.3,384.6 1390.1,385.7 1394.9,386.8 1399.7,387.9 1404.4,389.0 1409.2,390.2 1413.9,391.4 1418.7,392.7 1423.4,393.9 1428.1,395.3 1432.8,396.6 1437.5,398.0 1442.2,399.4 1446.9,400.9 1451.6,402.4 1456.2,403.9 1460.9,405.4 1465.5,407.0 1470.1,408.6 1474.7,410.3 1479.4,411.9 1484.0,413.7 1488.5,415.4 1493.1,417.2 1497.7,419.0 1502.2,420.9 1506.8,422.8 1511.3,424.7 1515.9,426.6 1520.4,428.6 1524.9,430.6 1529.4,432.7 1533.9,434.8 1538.4,436.9 1542.8,439.0 1547.3,441.2 1551.7,443.4 1556.2,445.7 1560.6,447.9 1565.0,450.3 1569.4,452.6 1573.8,455.0 1578.2,457.4 1582.6,459.9 1587.0,462.4 1591.3,464.9 1595.7,467.4 1600.0,470.0" fill="none" stroke="rgba(249,115,22,0.3)" stroke-width="1.2"/>
<polyline points="643.0,72.0 654.3,81.4 665.6,90.6 676.9,99.7 688.2,108.7 699.5,117.5 710.8,126.1 722.1,134.6 733.4,143.0 744.7,151.2 756.0,159.3 767.3,167.2 778.6,175.0 789.9,182.6 801.3,190.1 812.6,197.4 823.9,204.6 835.2,211.6 846.5,218.5 857.8,225.2 869.1,231.8 880.4,238.2 891.7,244.5 903.0,250.6 914.4,256.6 925.7,262.5 937.0,268.2 948.3,273.7 959.6,279.1 970.9,284.4 982.3,289.5 993.6,294.5 1004.9,299.3 1016.2,303.9 1027.5,308.5 1038.8,312.8 1050.2,317.0 1061.5,321.1 1072.8,325.0 1084.1,328.8 1095.4,332.4 1106.8,335.9 1118.1,339.3 1129.4,342.4 1140.7,345.5 1152.1,348.4 1163.4,351.1 1174.7,353.7 1186.0,356.2 1197.4,358.5 1208.7,360.6 1220.0,362.6 1231.4,364.5 1242.7,366.2 1254.0,367.7 1265.3,369.2 1276.7,370.4 1288.0,371.5 1299.3,372.5 1310.7,373.3 1322.0,374.0" fill="none" stroke="rgba(249,115,22,0.6)" stroke-width="1.8"/>
<polyline points="643.0,72.0 632.6,77.9 622.2,83.8 611.7,89.6 601.4,95.3 591.0,101.0 580.6,106.6 570.2,112.2 559.9,117.8 549.5,123.2 539.2,128.7 528.9,134.0 518.6,139.4 508.3,144.6 498.0,149.8 487.7,155.0 477.4,160.1 467.2,165.2 456.9,170.2 446.7,175.1 436.4,180.0 426.2,184.8 416.0,189.6 405.8,194.4 395.6,199.0 385.5,203.7 375.3,208.2 365.1,212.8 355.0,217.2 344.9,221.6 334.8,226.0 324.6,230.3 314.5,234.6 304.4,238.8 294.4,242.9 284.3,247.0 274.2,251.0 264.2,255.0 254.2,259.0 244.1,262.8 234.1,266.7 224.1,270.4 214.1,274.2 204.1,277.8 194.2,281.4 184.2,285.0 174.2,288.5 164.3,292.0 154.4,295.4 144.4,298.7 134.5,302.0 124.6,305.2 114.7,308.4 104.9,311.6 95.0,314.6 85.1,317.7 75.3,320.6 65.4,323.6 55.6,326.4 45.8,329.2 36.0,332.0" fill="none" stroke="rgba(249,115,22,0.5)" stroke-width="1.6"/>
<line x1="587.0" y1="772.0" x2="628.0" y2="62.0" stroke="rgba(249,115,22,0.66)" stroke-width="2"/>
<line x1="703.0" y1="772.0" x2="662.0" y2="62.0" stroke="rgba(249,115,22,0.66)" stroke-width="2"/>
<line x1="628.0" y1="62.0" x2="662.0" y2="62.0" stroke="rgba(249,115,22,0.66)" stroke-width="2"/>
<line x1="636.5" y1="56.0" x2="653.5" y2="56.0" stroke="rgba(249,115,22,0.66)" stroke-width="2"/>
<line x1="624.7" y1="120.0" x2="665.3" y2="120.0" stroke="rgba(249,115,22,0.66)" stroke-width="2"/>
<line x1="624.2" y1="128.0" x2="665.8" y2="128.0" stroke="rgba(249,115,22,0.66)" stroke-width="1.4"/>
<line x1="619.5" y1="210.0" x2="670.5" y2="210.0" stroke="rgba(249,115,22,0.66)" stroke-width="2"/>
<line x1="619.0" y1="218.0" x2="671.0" y2="218.0" stroke="rgba(249,115,22,0.66)" stroke-width="1.4"/>
<line x1="613.4" y1="315.0" x2="676.6" y2="315.0" stroke="rgba(249,115,22,0.66)" stroke-width="2"/>
<line x1="612.9" y1="323.0" x2="677.1" y2="323.0" stroke="rgba(249,115,22,0.66)" stroke-width="1.4"/>
<line x1="606.2" y1="440.0" x2="683.8" y2="440.0" stroke="rgba(249,115,22,0.66)" stroke-width="2"/>
<line x1="605.7" y1="448.0" x2="684.3" y2="448.0" stroke="rgba(249,115,22,0.66)" stroke-width="1.4"/>
<line x1="598.4" y1="575.0" x2="691.6" y2="575.0" stroke="rgba(249,115,22,0.66)" stroke-width="2"/>
<line x1="597.9" y1="583.0" x2="692.1" y2="583.0" stroke="rgba(249,115,22,0.66)" stroke-width="1.4"/>
<line x1="591.2" y1="700.0" x2="698.8" y2="700.0" stroke="rgba(249,115,22,0.66)" stroke-width="2"/>
<line x1="590.7" y1="708.0" x2="699.3" y2="708.0" stroke="rgba(249,115,22,0.66)" stroke-width="1.4"/>
<line x1="612.9" y1="323.0" x2="683.8" y2="440.0" stroke="rgba(249,115,22,0.66)" stroke-width="1.2"/>
<line x1="677.1" y1="323.0" x2="606.2" y2="440.0" stroke="rgba(249,115,22,0.66)" stroke-width="1.2"/>
<line x1="605.7" y1="448.0" x2="691.6" y2="575.0" stroke="rgba(249,115,22,0.66)" stroke-width="1.2"/>
<line x1="684.3" y1="448.0" x2="598.4" y2="575.0" stroke="rgba(249,115,22,0.66)" stroke-width="1.2"/>
<line x1="597.9" y1="583.0" x2="698.8" y2="700.0" stroke="rgba(249,115,22,0.66)" stroke-width="1.2"/>
<line x1="692.1" y1="583.0" x2="591.2" y2="700.0" stroke="rgba(249,115,22,0.66)" stroke-width="1.2"/>
<line x1="180.0" y1="434.0" x2="180.0" y2="420.0" stroke="rgba(0,212,255,0.3)" stroke-width="1"/>
<line x1="198.0" y1="434.0" x2="198.0" y2="420.0" stroke="rgba(0,212,255,0.3)" stroke-width="1"/>
<line x1="180.0" y1="420.0" x2="198.0" y2="420.0" stroke="rgba(0,212,255,0.3)" stroke-width="1"/>
<line x1="206.0" y1="434.0" x2="206.0" y2="408.0" stroke="rgba(0,212,255,0.3)" stroke-width="1"/>
<line x1="218.0" y1="434.0" x2="218.0" y2="408.0" stroke="rgba(0,212,255,0.3)" stroke-width="1"/>
<line x1="206.0" y1="408.0" x2="218.0" y2="408.0" stroke="rgba(0,212,255,0.3)" stroke-width="1"/>
<line x1="226.0" y1="434.0" x2="226.0" y2="414.0" stroke="rgba(0,212,255,0.3)" stroke-width="1"/>
<line x1="242.0" y1="434.0" x2="242.0" y2="414.0" stroke="rgba(0,212,255,0.3)" stroke-width="1"/>
<line x1="226.0" y1="414.0" x2="242.0" y2="414.0" stroke="rgba(0,212,255,0.3)" stroke-width="1"/>
<line x1="250.0" y1="434.0" x2="250.0" y2="394.0" stroke="rgba(0,212,255,0.3)" stroke-width="1"/>
<line x1="270.0" y1="434.0" x2="270.0" y2="394.0" stroke="rgba(0,212,255,0.3)" stroke-width="1"/>
<line x1="250.0" y1="394.0" x2="270.0" y2="394.0" stroke="rgba(0,212,255,0.3)" stroke-width="1"/>
<line x1="278.0" y1="434.0" x2="278.0" y2="404.0" stroke="rgba(0,212,255,0.3)" stroke-width="1"/>
<line x1="292.0" y1="434.0" x2="292.0" y2="404.0" stroke="rgba(0,212,255,0.3)" stroke-width="1"/>
<line x1="278.0" y1="404.0" x2="292.0" y2="404.0" stroke="rgba(0,212,255,0.3)" stroke-width="1"/>
<line x1="300.0" y1="434.0" x2="300.0" y2="382.0" stroke="rgba(0,212,255,0.3)" stroke-width="1"/>
<line x1="322.0" y1="434.0" x2="322.0" y2="382.0" stroke="rgba(0,212,255,0.3)" stroke-width="1"/>
<line x1="300.0" y1="382.0" x2="322.0" y2="382.0" stroke="rgba(0,212,255,0.3)" stroke-width="1"/>
<line x1="330.0" y1="434.0" x2="330.0" y2="396.0" stroke="rgba(0,212,255,0.3)" stroke-width="1"/>
<line x1="346.0" y1="434.0" x2="346.0" y2="396.0" stroke="rgba(0,212,255,0.3)" stroke-width="1"/>
<line x1="330.0" y1="396.0" x2="346.0" y2="396.0" stroke="rgba(0,212,255,0.3)" stroke-width="1"/>
<line x1="352.0" y1="434.0" x2="352.0" y2="362.0" stroke="rgba(0,212,255,0.3)" stroke-width="1"/>
<line x1="378.0" y1="434.0" x2="378.0" y2="362.0" stroke="rgba(0,212,255,0.3)" stroke-width="1"/>
<line x1="352.0" y1="362.0" x2="378.0" y2="362.0" stroke="rgba(0,212,255,0.3)" stroke-width="1"/>
<line x1="360.0" y1="434.0" x2="360.0" y2="338.0" stroke="rgba(0,212,255,0.3)" stroke-width="1"/>
<line x1="368.0" y1="434.0" x2="368.0" y2="338.0" stroke="rgba(0,212,255,0.3)" stroke-width="1"/>
<line x1="360.0" y1="338.0" x2="368.0" y2="338.0" stroke="rgba(0,212,255,0.3)" stroke-width="1"/>
<line x1="392.0" y1="434.0" x2="392.0" y2="388.0" stroke="rgba(0,212,255,0.3)" stroke-width="1"/>
<line x1="410.0" y1="434.0" x2="410.0" y2="388.0" stroke="rgba(0,212,255,0.3)" stroke-width="1"/>
<line x1="392.0" y1="388.0" x2="410.0" y2="388.0" stroke="rgba(0,212,255,0.3)" stroke-width="1"/>
<line x1="418.0" y1="434.0" x2="418.0" y2="404.0" stroke="rgba(0,212,255,0.3)" stroke-width="1"/>
<line x1="438.0" y1="434.0" x2="438.0" y2="404.0" stroke="rgba(0,212,255,0.3)" stroke-width="1"/>
<line x1="418.0" y1="404.0" x2="438.0" y2="404.0" stroke="rgba(0,212,255,0.3)" stroke-width="1"/>
<line x1="446.0" y1="434.0" x2="446.0" y2="412.0" stroke="rgba(0,212,255,0.3)" stroke-width="1"/>
<line x1="462.0" y1="434.0" x2="462.0" y2="412.0" stroke="rgba(0,212,255,0.3)" stroke-width="1"/>
<line x1="446.0" y1="412.0" x2="462.0" y2="412.0" stroke="rgba(0,212,255,0.3)" stroke-width="1"/>
<line x1="468.0" y1="434.0" x2="468.0" y2="418.0" stroke="rgba(0,212,255,0.3)" stroke-width="1"/>
<line x1="480.0" y1="434.0" x2="480.0" y2="418.0" stroke="rgba(0,212,255,0.3)" stroke-width="1"/>
<line x1="468.0" y1="418.0" x2="480.0" y2="418.0" stroke="rgba(0,212,255,0.3)" stroke-width="1"/>
<line x1="150.0" y1="434.0" x2="486.0" y2="434.0" stroke="rgba(0,212,255,0.22)" stroke-width="1"/>
<polyline points="0.0,560.0 70.0,584.0 120.0,628.0 150.0,612.0 196.0,684.0 236.0,742.0 270.0,792.0 300.0,900.0" fill="none" stroke="rgba(249,115,22,0.4)" stroke-width="1.6"/>
<line x1="70.0" y1="584.0" x2="150.0" y2="720.0" stroke="rgba(249,115,22,0.2)" stroke-width="1"/>
<line x1="150.0" y1="612.0" x2="236.0" y2="742.0" stroke="rgba(249,115,22,0.2)" stroke-width="1"/>
<line x1="196.0" y1="684.0" x2="120.0" y2="900.0" stroke="rgba(249,115,22,0.2)" stroke-width="1"/>
<line x1="486.0" y1="434.0" x2="1600.0" y2="440.0" stroke="rgba(0,212,255,0.12)" stroke-width="1"/>
<path d="M 950 560 Q 1180 552 1420 560" fill="none" stroke="rgba(0,212,255,0.08)" stroke-width="1"/>
<path d="M 950 640 Q 1180 632 1420 640" fill="none" stroke="rgba(0,212,255,0.08)" stroke-width="1"/>
<path d="M 950 720 Q 1180 712 1420 720" fill="none" stroke="rgba(0,212,255,0.08)" stroke-width="1"/>
</svg>
